<?xml version="1.0" encoding="utf-8"?>
<!-- Generator: Adobe Illustrator 27.5.0, SVG Export Plug-In . SVG Version: 6.00 Build 0)  -->
<svg version="1.1" id="Laag_1" xmlns="http://www.w3.org/2000/svg" xmlns:xlink="http://www.w3.org/1999/xlink" x="0px" y="0px"
	 viewBox="0 0 480 480" style="enable-background:new 0 0 480 480;" xml:space="preserve">
<style type="text/css">
	.st0{fill:none;}
</style>
<path id="ViewLayer_LineSet" xmlns:inkscape="http://www.inkscape.org/namespaces/inkscape" inkscape:groupmode="lineset" inkscape:label="ViewLayer_LineSet" class="st0" d="
	M342.2,167.5l-1.5-9.9l-1.5-9.9l-0.9-5.8 M338.4,141.9l-7.6-1.9 M330.8,140l1.6,9.9l1.6,9.9l1,6.1 M334.9,165.9l7.3,1.6 M315,98.9
	l3.6,9.3l3.6,9.3l3.6,9.3l3.6,9.3l1.4,3.7l-4.9-6.1 M325.9,133.9l1,10l1,10l1,10l0.1,0.8 M328.8,164.5l6.1,1.3l-0.3,10l-0.3,10
	l-0.3,10l-0.1,5.1 M315,98.9l0.3,0.9l3.5,9.4l3.5,9.4l3.5,9.4l1,2.6l-1,3.5l-9.7-2.4l-9.7-2.4l-9.7-2.4l-9.7-2.4l-5.2-1.3
	 M281.9,122.9l0,10l0,10l0,9.8 M281.8,152.7l9.7,2.4l9.7,2.4l9.7,2.4l9.7,2.4l8.2,2.1l1.3,9.9l0.6,4.9 M283.5,117.1l-1.6,5.9
	l-9.9-1.5l-9.9-1.5l-9.9-1.5l-9.9-1.5l-2.3-0.4 M240,116.6v10v10v10v1 M240,147.6l9.9,1.2l9.9,1.2l9.9,1.2l9.9,1.2l2.1,0.3l-1.1,9.9
	l-1.1,9.9l-1.1,9.9l-1.1,9.9l-0.1,1.1 M343.8,301.5l0.6,0l4.1-1.4l1.9-9.8l1.9-9.8l1.9-9.8l0.6-3.2l0.2-10l0.2-10l0.2-10l0.1-5
	l-2.5-9.7l-2.2-8.2l-2.6-0.4l-4.3-0.5l-1.6-7l0.4-10l0.4-10l0.4-10l0.3-7.1l-1.5-9.9l-1.5-9.9l-0.7-5l-3.2-9.5l-3.2-9.5l-3.2-9.5
	l-3.2-9.5l-3.2-9.5l-0.5-1.4l-9.9-1.5l-9.9-1.5l-9.9-1.5l-9.9-1.5l-5.7-0.8l-10-0.8l-10-0.8l-10-0.8l-8.5-0.7l-10,0.8l-10,0.8
	l-10,0.8l-8.5,0.7l-9.9,1.5l-9.9,1.5l-9.9,1.5l-9.9,1.5l-5.7,0.8l-3.2,9.5l-3.2,9.5l-3.2,9.5l-3.2,9.5l-3.2,9.5l-0.5,1.4l-1.5,9.9
	l-1.5,9.9l-0.7,5l0.4,10l0.4,10l0.4,10l0.3,7.1l-1.6,7l-4.3,0.5l-2.6,0.4l-2.5,9.7l-2.2,8.2l0.2,10l0.2,10l0.2,10l0.1,5l1.9,9.8
	l1.9,9.8l1.9,9.8l0.6,3.2l4.1,1.4l0.6,0 M139.4,208.2l-1,4.6l-0.3,1.3l-0.2,0.7l-0.3,1.6l-0.7,3l-0.1,0.7l0,0.3l-0.4,3.9l-0.3,3.7
	l-0.4,4.8l-0.1,1.2l-0.9,10l-0.9,10l-0.9,10l-0.2,1.9l-0.2,2l0,0.2l0,0.5l-0.1,0.7l1.2,9.9l1.2,9.9l0.7,5.9l0.1,0.7l0.1,0.7l0.5,4
	l0.2,1.4l1.2,9.9l1.2,9.9l1.2,9.9l0.7,5.6l2.1,9.8l2.1,9.8l2.1,9.8l2.1,9.8l1.6,7.3l3.3,9.4l3.3,9.4l1.3,3.7l4.2,9.1l0.6,1.2
	l6.2,7.8l6.2,7.8l1.4,1.7l9.9,1.1l9.9,1.1l9.9,1.1l9.9,1.1l5.9,0.7l9.9,1.1l7.4,0.8l9.9-1.1l7.4-0.8l9.9-1.1l9.9-1.1l9.9-1.1
	l9.9-1.1l5.9-0.7l6.2-7.8l6.2-7.8l1.4-1.7l4.1-9.1l0.6-1.2l3.3-9.4l3.3-9.4l1.3-3.7l2.1-9.8l2.1-9.8l2.1-9.8l2.1-9.8l1.6-7.3
	l1.2-9.9l1.2-9.9l1.2-9.9l0.7-5.6l0.2-1.4l0.5-4l0.1-0.7l0.1-0.7l1.2-9.9l1.2-9.9l0.7-5.9l-0.1-0.7l0-0.5l0-0.2l-0.2-2l-0.9-10
	l-0.9-10l-0.9-10l-0.2-1.9l-0.1-1.2l-0.4-4.8l-0.3-3.7l-0.4-3.9l0-0.3l-0.1-0.7l-0.7-3l-0.3-1.6l-0.2-0.7l-0.3-1.3l-1-4.6
	 M340.2,145l-1.8-3.1l-4.8-8.8l-4.8-8.8l-4.8-8.8l-4.8-8.8l-4.3-7.8 M326.9,130.5l-2.3-0.7l-9.6-2.9l-9.6-2.9l-9.6-3l-9.6-2.9
	l-2.9-0.9 M340.6,208.2l0.4-10l0.4-10l0.4-10l0.4-10l0-0.7l1.7,2.3 M280.7,318.7l0.6-3.8 M300.8,325.9l-8.7-4.9l-8.7-4.9l-2.2-1.2
	l-10-0.1l-5,0l-10-0.1l-10-0.2l-6.2-0.1l-10,0.2l-10,0.1l-6.2,0.1l-10,0.1l-5,0l-8.7,4.9l-8.7,4.9l-2.2,1.2 M267.3,308.7l-1.1,6
	l-0.9,3.9 M179.2,325.9l9.4-3.4l9.4-3.4l1.3-0.5l10,0l5.4,0l10,0l10-0.1l5.3,0l10,0.1l10,0.1l5.3,0l10,0l5.4,0l9.4,3.4l9.4,3.4
	l1.3,0.5 M309.2,328.9l2.8,1.1l0.1,0l9.3,3.6l7.5,2.9 M329,336.6l1.5-9.9l1.5-9.9l1.5-9.9l1.2-8.2 M334.7,298.7l-9.6-3l-4.9-1.5
	l-4.7,2.1L310,288l-1.4-2.1l-9.6-1.7 M284.5,275.3l8.5,5.2l6,3.6l-10,0.9l-5.6,0.5 M283.5,285.6l-0.8,10l-0.8,10l-0.2,3
	 M281.7,308.5l8,6l8,6l8,6l3.4,2.5 M335.1,342.2l1.4-9.9l1.4-9.9l1.4-9.9l1.4-9.9l0.4-2.7 M341.1,299.9l-6.4-1.2l0.1-0.3l0.7-2.9
	l0.2-0.7l2.4-9.7l2.4-9.7l1.3-5.1l0.1-0.4 M316.8,416.3l1.5-9.9l1.5-9.9l1.5-9.9l1.5-9.9l1.5-9.9l1.5-9.9l1.5-9.9l1.6-10.5l6.1,5.6
	 M344.4,296.2l-3.4,3.7l0,0l0.1-4.4l0.2-10l0.2-10l0.1-5.3 M321.5,406l2.1-9.8l2.1-9.8l2.1-9.8l2.1-9.8l2.1-9.8l2.1-9.8l1.1-5.1
	l4.4-5.2 M318.4,245.1l1.9,2l0.3,0.3l6.9,7.3l6.9,7.3l1,1.1l6.4,6.8l0.1,0.1l-0.2-0.9l-1.8-9.8l-1.8-9.8l-1.8-9.8l-1.4-7.6
	 M334.9,231.8l-1.6,1.3l-7.8,6.3l-5,4l-0.2,0.2l-1.9,1.5 M336.1,218.3l-1.5-0.8 M334.6,217.5l0.1,4.5l0.2,9.8l-1.8-0.7l-8.9-3.5
	l-4,0.6l-0.1,0l-5,0.8l-1.1,0.2 M343.1,219.2l-4.6-0.6l-2.3-0.3l-1.3-9.9l-1-7.4 M282.1,325l10,0.5l8.8,0.4l8.3,3l-8.7,4.9l-8.7,4.9
	l-6.2,3.5 M285.6,342.3l1.9,9.8l1.9,9.8l1.9,9.8l0.5,2.6l1.9,9.8l1.9,9.8l1.3,6.9l1.9,9.8l1.9,9.8l1.9,9.8l0.6,3.3 M282.1,325l2,9.8
	l1.5,7.5l-10,0.3l-10,0.3l-1.8,0.1 M263.8,343l-0.7,10l-0.7,10l-0.7,9.9l-0.7,10l-0.7,10l-0.7,10l-0.3,4.5l0,0.1l-0.7,10l-0.7,10
	l-0.7,10l-0.1,1.7 M330.7,179.3l1.4,9.9l1.4,9.9l0.3,1.8l6.8,7.2l1.8-1.4 M249.6,196.6l9.9-1.1l9.9-1.1l7.8-0.8l10-0.8l10-0.8
	l10-0.8l10-0.8l3.3-0.2 M198.2,152.7l9.9-1.2l9.9-1.2l9.9-1.2l9.9-1.2l2.1-0.3v10v10v10v10v10 M240,197.6l9.5-1l-0.8,8.7
	 M327.4,206.3l-4-9.1l-3-6.8l6.8-7.3l3.5-3.7l1,9.9l1,10l1,9.9l0.8,8.4 M240,88.5l10,0.8l10,0.8l10,0.8l9.8,0.8 M279.7,91.8
	l-1.2-2.2 M240,86.4v2.1 M323.7,96.2l-8.6,2.7 M240,111l9.9,1.4l9.9,1.4l9.9,1.4l9.9,1.4l3.9,0.5l-1.5-9.9l-1.5-9.9l-0.8-5.5l9.8,2
	l9.8,2l9.8,2l6,1.2 M265,325l-0.7,10l-0.5,8l-10,0l-10,0l-3.8,0 M240,342.9v10v10v10v10v10v10v10v10v10v8 M260.5,247.9l-2.4-7.9
	 M258.1,240l-8.3,2.2 M249.8,242.2l0.6,10l0.2,2.7l0.1,1l0.2,3.2 M250.8,259l2.9-3.3l0.9-1.1l5.9-6.7 M240,197.6v10v10v10v10v3.4v10
	v7.6v10v5.1v9.8 M230.2,242.2l9.8-1.1l9.8,1.1l-0.3-10l-0.3-10l-0.3-10l-0.2-6.9l2.5-0.2l10,0.2l10,0.2l7.1,0.2l0.8,0l10,0.1
	l8.3,0.1l10,0.1l10,0.1l9.9,0.1 M240,308.2v6.1v4.2v6.2 M301.2,218.3l-2.2,0.4l-9.9,1.7l-7,1.2l-9.3,1.6l-0.2,0.1l-0.6,0.5l-1.1,0.9
	l-5,8.7l-0.5,0.9 M269.3,219.9l1.7,4.7l-0.4,1.4 M279.6,222.1L279.6,222.1l1.7-0.3l0.5-0.1l2.1-0.4l3-0.5l1.6-0.3l1.5-0.2l7.3-1.2
	l1-0.2l0.1,0l0.3-0.1l1.8-0.3l2.1,1.9 M300.5,218.6l0.8-0.3 M299,218.7l-0.7,0.3 M264.9,238.9l0.4-1.1l9.1,1.1l3.3,0.1 M274.4,238.9
	l-1.5-0.6l5.1,0l0.2,0h0l1.1,0l1.9-0.1l1.6-0.2l2.3-0.3l1.8-0.2 M304.1,234.6l-2.3,1.6l-2.1,0l-0.3,0l-3.3,0.4l-1.7,0.2l-0.3,0
	 M299.4,236.2l-1,0.3 M281.7,239.5l9.9-1.7l6.8-1.2l4-0.2 M302.4,236.4l-0.6-0.2 M281.7,221.8l0.4-0.2l-1.2-4 M301,215.6l7.4-2.6
	l9.4-3.3l9.4-3.3l0.2-0.1l2.8,9.6l2.8,9.6l0.3,0.9l1.6,5.4 M279.2,205.7l1.5,9.9l0.3,2 M269.3,219.9l9.8-2l1.9-0.4l10-1l10-1
	 M263.3,267.9l-8.3,5.6l-2.2,1.5l9.3-3.7l5.8-2.3 M268.4,288.3l4.2-8.1l-3.9-9.2l-0.8-2l-4.6-1.1l-1.4-9.9l-0.4-2.6l-0.1-1l-0.9-6.5
	 M284.5,275.3l7.5-6.7l7.5-6.7l2.7-2.4l0.4-0.3l7.5-6.7l7.5-6.7l1-0.9 M313.4,242l4.9,3.1l-10,0.5l-10,0.5l-10,0.5l-7.8,0.4
	 M280.6,246.9l1,7.2v0l0.1,1l1.4,9.9l1.4,9.9l0.1,0.4 M227.2,275l10-0.9l2.9-0.3l10,0.9l2.9,0.3 M252.8,275l-1.3-9.9l-0.8-6.1
	l-10-0.3l-0.8,0l-10,0.3l-0.8,0 M255.2,283.1l-2.3-8.2l9.7,2.6l9.7,2.6l0.4,0.1l9.8,2l1.4,0.3l0.1,0 M245.3,288.1l10-0.1l5.4-0.1
	 M267.9,269l9.3,3.6l7.2,2.8l-0.7,7.2l-0.4,3.1 M280.7,244l-0.1,2.9l-10,0.5l-2.7,0.1l-7.4,0.3 M211.6,288.3l9.3-3.6l3.9-1.5l0.3,0
	l8.4,0.3l6.4,0.2l6.4-0.2l8.4-0.3l0.3,0l9.3,3.6l3.9,1.5 M264.9,238.9l-0.6,0.1l-6.2,1l-1.9-9.8l-1.9-9.8l-1.9-9.8l-1.1-5.5l7.7,6.4
	l6.4,5.3l3.8,3.2l-3.2,9.5l-1.7,5.1 M280.7,244l-9.5-3.1l-6.3-2l-0.6-4.4l1.2-0.2 M280.7,318.7l1.4,6.3l-10,0l-7.1,0 M267.3,308.7
	l10-0.2l4.3-0.1l-0.4,6.4 M265,325l-10-0.1l-10-0.1l-5-0.1l-10,0.1l-10,0.1l-5,0.1 M240,324.7v10v8.2l-10,0l-10,0l-3.8,0
	 M283.5,285.6l-9.8,1.8l-5.2,0.9l-10,0.3l-10,0.3l-8.4,0.3l-10-0.3l-10-0.3l-8.4-0.3 M245.8,284.4l1.1,0.2l5.3,0.8l8.5,2.6l7.7,0.3
	l-0.5,10l-0.5,10l0,0.5l-10-0.2l-10-0.2l-7.3-0.1 M240,289.3v10v9l-10,0.2l-10,0.2l-7.3,0.1 M265.3,318.7L265,325 M348.7,294.8
	l1.8-9.8l1.8-9.8l1.8-9.5l0.2-10l0.2-10l0.2-10l0-1.8l-2.9-9.6l-1.2-4 M355.6,232.6l-0.9,1.2h-7.9 M345.8,295.5l0.1-0.7l1.2-9.9
	l1.2-9.9l0.9-7.2l0-0.2l-0.1-2l-0.7-10l-0.7-10l-0.7-10l-0.1-1.9l-0.1-1.2l-0.3-4.8l2.3-7.6l0.1-0.3 M344.4,301.5l0.7-6l1.1-9.9
	l1.1-9.9l0.8-7.3l-0.7-10l-0.7-10l-0.7-10l-0.7-10l-0.3-4.3 M348.3,214.2l-1.8,5.6l-1.3,4.2l-1.7,0 M344,213.8l-1.6,2.4
	 M346.4,227.8l-1.2-3.7 M347.6,268.3h0.6l1-0.5 M344.4,301.5l1.4-6l2.8-0.7h-2.8 M349,265.6h5l0.7,2 M350.9,214.7l-0.3,5.5
	 M348.7,220.2h1.9l-1.8-0.3l-0.5-5.6 M348.6,300.2l0.1-5.4 M309.4,231.7l2.8-1.5l0.8-0.4l0,0l0.4-0.2l0.5-0.3l0.1-0.1l-7.6-6.5
	l-5.1-4.4l-0.2-2.8l8.9,4.6l1.9,1l8.3,4.3l0.1,0l4,2.1l-3.9,5.2l-0.1,0.2l-6,8l-0.7,0.9 M309.4,231.7l-7,4.7l8.1,4.1l3,1.5l-3.7,0.2
	l-10,0.6l-10,0.6l-9.1,0.6l1-4.6 M245.3,288.1l0.4-3.8l-5.8-0.8 M234.2,284.4l5.8-0.8v5.7 M234.7,288.1l5.3,1.1l5.3-1.1l1.6-3.6
	 M255.2,283.1l-0.1,0.1l-2.8,2.2 M281.2,238.2l0.5,1.3l-4-0.5l0.5-0.6 M312.2,230.1l-4.4,2l1.6-0.4 M266.9,233.6l-1.4,0.7l-0.1,1.8
	l0,0.2l0,0.8l0,0.1l0,0.8 M200.3,91.8l10-0.8l10-0.8l10-0.8l9.8-0.8v10v10v2.5 M196.5,117.1l9.9-1.4l9.9-1.4l9.9-1.4l9.9-1.4
	l3.9-0.5v5.6l-9.9,1.5l-9.9,1.5l-9.9,1.5l-9.9,1.5l-2.3,0.4 M288.6,229.1l0-8.4 M274.4,229.1l2.7-6.5 M274.4,229.1l10,0l4.2,0
	 M269.1,229.1l5.3,0l3.8,9.3 M307.9,229.1l-5.3,0 M302.6,229.1l-3,7.2 M298.5,219.1l3.8,9.2l0.3,0.7l-10,0l-4.1,0 M298.5,219.1
	l-7.1,7.1l-2.9,2.9 M298.6,218.9l-0.2,0.2l-0.2-0.1 M137.8,167.5l7.3-1.6 M145.1,165.9l1.6-9.9l1.6-9.9l1-6.1 M149.2,140l-7.6,1.9
	 M141.6,141.9l-1.5,9.9l-1.5,9.9l-0.9,5.8 M146.1,200.9l-0.3-10l-0.3-10l-0.3-10l-0.1-5.1l6.1-1.3 M151.2,164.5l1-10l1-10l1-10
	l0.1-0.8 M154.1,133.9l-4.9,6.1l3.6-9.3l3.6-9.3l3.6-9.3l3.6-9.3l1.4-3.7 M149.3,179.3l1.3-9.9l0.6-4.9l9.7-2.4l9.7-2.4l9.7-2.4
	l9.7-2.4l8.2-2.1 M202.8,193.6l-1.1-9.9l-1.1-9.9l-1.1-9.9l-1.1-9.9l-0.1-1.1l0-10l0-10l0-9.8 M198.1,122.9l-9.7,2.4l-9.7,2.4
	l-9.7,2.4l-9.7,2.4l-5.2,1.3l-1-3.5l3.5-9.4l3.5-9.4l3.5-9.4l1-2.6l0.3-0.9 M165,98.9l-4.8,8.8l-4.8,8.8l-4.8,8.8l-4.8,8.8l-4.3,7.8
	l-1.8,3.1 M198.1,122.9l-1.6-5.9 M200.3,91.8l-1.5,9.9l-1.5,9.9l-0.8,5.5l-9.6,3l-9.6,3l-9.6,3l-9.6,2.9l-2.9,0.9l-2.3,0.7
	 M136.2,169.7l1.7-2.3l0.4,10l0.4,10l0.4,10l0.4,10l0,0.7 M215,325l-0.3-6.4l-0.9-3.9l-1.1-6 M198.3,308.5l0.4,6.4l0.6,3.8l-1.4,6.3
	 M145.3,298.7l1.5,9.9l1.5,9.9l1.5,9.9l1.2,8.2 M151,336.6l9.3-3.6l7.5-2.9l0.1,0l2.8-1.1 M170.8,328.9l8-6l8-6l8-6l3.4-2.5
	 M211.6,288.3l0.5,10l0.5,10l0,0.5l-10-0.2l-4.3-0.1l-0.8-10l-0.8-10l-0.2-3 M196.5,285.6l-10-0.9l-5.6-0.5 M195.5,275.3l-8.5,5.2
	l-6,3.6l-9.6,1.7l-5.5,8.3l-1.4,2.1l-4.7-2.1l-9.6,3l-4.9,1.5 M144.9,342.2l6.1-5.6l1.5,9.9l1.5,9.9l1.5,9.9l1.5,9.9l1.5,9.9
	l1.5,9.9l1.5,9.9l1.6,10.5 M138.2,269.9l0.1,0.4l2.4,9.7l2.4,9.7l1.3,5.1l0.2,0.7l0.7,2.9l0.1,0.3l-6.4,1.2 M138.9,299.9l1.4,9.9
	l1.4,9.9l1.4,9.9l1.4,9.9l0.4,2.7 M140.4,337l4.4,5.2l2.1,9.8l2.1,9.8l2.1,9.8l2.1,9.8l2.1,9.8l2.1,9.8l1.1,5.1 M138.3,270.2l0.2,10
	l0.2,10l0.1,5.3l0.1,4.4l0,0l-3.4-3.7 M145.2,231.8l-1.8,9.8l-1.8,9.8l-1.8,9.8l-1.4,7.6l-0.2,0.9l0.1-0.1l6.4-6.8l6.9-7.3l6.9-7.3
	l1-1.1l0.3-0.3l1.9-2 M161.6,245.1l-1.9-1.5l-0.2-0.2l-7.8-6.3l-5-4l-1.6-1.3 M166,229.2L165,229l-5-0.8l-0.1,0l-4-0.6l-8.9,3.5
	l-1.8,0.7l0.2-9.8l0.1-4.5 M149.3,179.3l-1,9.9l-1,10l-1,9.9l-0.8,8.4l-1.5,0.8 M132.3,269l2.9,0.4l3,0.4 M146.1,200.9l-1.3,9.9
	l-1,7.4l-2.3,0.3l-4.6,0.6 M177,433.7l1.9-9.8l1.9-9.8l1.9-9.8l0.6-3.3l1.9-9.8l1.9-9.8l1.3-6.9l1.9-9.8l1.9-9.8l1.9-9.8l0.5-2.6
	 M194.4,342.3l-8.7-4.9l-8.7-4.9l-6.2-3.5l8.3-3l10-0.5l8.8-0.4 M222.7,439l-0.7-10l-0.7-10l-0.7-10l-0.1-1.7l0-0.1l-0.7-10l-0.7-10
	l-0.7-10l-0.3-4.5l-0.7-10l-0.7-10l-0.7-9.9 M216.2,343l-10-0.3l-10-0.3l-1.8-0.1l2-9.8l1.5-7.5l10,0l7.1,0l0.7,10L216.2,343
	 M137.5,206.8l1.8,1.4l6.8-7.2l1.4-9.9l1.4-9.9l0.3-1.8l6.8,7.3l3.5,3.7 M159.6,190.3l10,0.8l10,0.8l10,0.8l10,0.8l3.3,0.2l9.9,1.1
	l9.9,1.1l7.8,0.8 M231.2,205.2l-0.8-8.7l9.6,1 M201.6,89.5l-1.2,2.2l-9.8,2l-9.8,2l-9.8,2l-6,1.2l-8.6-2.7 M219.5,247.9l5.9,6.7
	l0.9,1.1l2.9,3.3 M227.2,275l1.3-9.9l0.8-6.1l0.2-3.2l0.1-1l0.6-10l0.2-2.7 M231.2,205.2l-0.3,10l-0.3,10l-0.3,10l-0.2,6.9l-8.3-2.2
	 M221.9,240l-2.4,7.9 M209.4,226l-0.4-1.4 M214.5,234.2l-5-8.7l-0.5-0.9l-1.1-0.9l-0.6-0.5l-0.2-0.1l-9.3-1.6l-1.7-0.3l-3-0.5
	l-1.6-0.3l-1.3-0.2l-7.7-1.3l-0.5-0.1l-0.8-0.1l-0.2,0l-2.2-0.4 M181.7,219l-0.7-0.2l-0.1,0 M178.8,218.3l0.8,0.3 M177.4,220.5
	l2.1-1.9l1.8,0.3l0.3,0.1l0.1,0l1,0.2l7.3,1.2l1.5,0.2l1.6,0.3l3,0.5l2.1,0.4l0.4,0.1l1.6,0.3l0,0 M193.1,237.6l1.8,0.2l2.3,0.3
	l1.6,0.2l1.9,0.1l1.1,0h0l0.2,0l5.1,0l-1.5,0.6 M202.3,239l3.3-0.1l9.1-1.1l0.4,1.1l-9.5,3.1l-6.3,2 M178.2,236.2l-0.6,0.2
	 M177.6,236.4l4,0.2 M198.3,239.5l-9.9-1.7l-6.8-1.2l-1.1-0.3 M186,236.8l-0.3,0l-1.7-0.2l-3.3-0.4l-0.3,0l-2.1,0l-2.3-1.6
	 M199,217.6l-1.2,4l0.4,0.2 M179,215.6l9.9,1l10,1l9.8,2l1.9,0.4 M199,217.6l1.5-9.9l0.3-2 M228.7,205l-10,0.2l-10,0.2l-7.1,0.2
	l-0.8,0l-10,0.1l-8.3,0.1l-10,0.1l-10,0.1l-9.9,0.1 M152.6,206.3l9.4,3.3l9.4,3.3l0.2,0.1l7.4,2.6 M145.2,231.8l1.6-5.4l2.8-9.6
	l2.8-9.6l0.3-0.9l4-9.1l3-6.8 M212.1,269l9.3,3.7l5.8,2.3l-8.3-5.6l-2.2-1.5 M219.5,247.9l-0.9,6.5l-0.1,1l-1.4,9.9l-0.4,2.6
	l-4.6,1.1l-3.9,9.2l-0.8,2l4.2,8.1l-9.8-1.8l-5.2-0.9l-0.4-3.1l-0.7-7.2 M195.5,275.3l1.4-9.9l1.4-9.9l0.1-0.4l0.1-1v0l1-7.2
	 M199.4,246.9l-10-0.5l-10-0.5l-7.8-0.4l-10-0.5 M166.6,242l-4.9,3.1l7.5,6.7l7.5,6.7l1,0.9l0.4,0.3l7.5,6.7l7.5,6.7l2.7,2.4
	l9.3-3.6l7.2-2.8 M196.1,282.5L196.1,282.5l9.9-2l1.4-0.3l9.7-2.6l9.7-2.6l0.4-0.1l-2.3,8.2l0.1,0.1l2.8,2.2 M234.7,288.1l-1.6-3.6
	 M211.6,288.3l7.7-0.3l10,0.1l5.4,0.1l-0.4-3.8l-1.1,0.2l-5.3,0.8l-8.5,2.6 M219.5,247.9l-7.4-0.3l-10-0.5l-2.7-0.1l-0.1-2.9
	 M228.7,205l-1.9,9.8l-1.9,9.8l-1.9,9.8l-1.1,5.5l-6.2-1l-0.6-0.1l0.6-4.4 M210.7,219.9l3.8-3.2l7.7-6.4l6.4-5.3l2.5,0.2
	 M125.9,265.6h5 M129.4,220.2l-2.9,9.6l-1.2,4l0.2,10l0.2,10l0.2,10l0,1.8l1.8,9.8l1.8,9.8l1.8,9.5 M131.2,219.9l0.1,0.3l2.3,7.6
	l-0.3,4.8l-0.1,1.2l-0.7,10l-0.7,10l-0.7,10l-0.1,1.9l-0.1,2l0,0.2l1.2,9.9l1.2,9.9l0.9,7.2l0.1,0.7 M134.8,224.1l-0.7,10l-0.7,10
	l-0.7,10l-0.7,10l-0.3,4.3l1.1,9.9l1.1,9.9l0.8,7.3l0.7,6 M130.8,267.8l1,0.5h0.6 M131.7,214.2l1.8,5.6l1.3,4.2l1.7,0 M134.8,224.1
	l-1.2,3.7 M134.1,294.8h-2.8l2.8,0.7l1.4,6 M133.2,233.8h-7.9l-0.9-1.2 M125.2,267.6l0.7-2 M129.4,220.2l-0.3-5.5 M131.7,214.2
	l-0.5,5.6l-1.8,0.3h1.9 M131.3,294.8l0.1,5.4 M166.6,242l-6-8l-0.7-0.9l-0.1-0.2l-3.9-5.2l4-2.1l0.1,0l8.3-4.3l8.9-4.6l1.9-1
	l-0.2,2.8l-7.6,6.5l-5.1,4.4l0.1,0.1l0.5,0.3l0.4,0.2l0,0l0.8,0.4l2.8,1.5 M198.3,239.5l1,4.6l-10-0.6l-10-0.6l-9.1-0.6l-3.7-0.2
	l3-1.5l8.1-4.1l-7-4.7 M214.5,234.2l1.2,0.2l-3.2-9.5l-1.7-5.1l-1.7,4.7 M201.8,238.3l0.5,0.6l-4,0.5l0.5-1.3 M170.6,231.7l1.6,0.4
	l-4.4-2 M214.5,234.2l0.1,1.8l0,0.2l0,0.8l0,0.1l0,0.8 M214.5,234.2l-1.4-0.7 M191.4,229.1l7.1-7l0.2-0.2 M205.6,229.1l5.3,0
	 M191.4,229.1l10,0l4.2,0 M191.4,229.1l7.1,7.1l2.2,2.2 M191.4,229.1l0,8.4 M191.4,229.1l-7,7.1l-0.4,0.4 M177.4,229.1l-5.3,0
	 M172.1,229.1l1.7,4 M191.4,229.1l-10,0l-4.1,0 M174.6,223l-2.5,6.1l-4.4,0.1 M191.5,220.6l0,8.4l-7.1-7.1l-2.9-2.9 M181.5,219.1
	l-3.8,9.2l-0.3,0.7l3,7.2 M181.7,219l-0.2,0.1l-0.2-0.2 M137.6,216.2l-1.6-2.4 M202.9,222.6l2.7,6.5l-3.8,9.3 M211.1,229.6l-3.6,8.7
	 M214.6,236.2l-0.4,1 M265.8,237.1l-0.4-1 M272.5,238.2l-3.6-8.7 M281.3,221.8l7.1,7l0.2,0.2 M279.3,238.3l7.1-7.1l2.2-2.2
	 M288.5,237.4l0-8.4l7,7.1l0.4,0.4 M306.3,233.1l1.7-4 M305.4,223l2.5,6.1l4.4,0.1 M341.8,269.8l3-0.4l2.9-0.4"/>
</svg>
