<?xml version="1.0" encoding="utf-8"?>
<!-- Generator: Adobe Illustrator 27.5.0, SVG Export Plug-In . SVG Version: 6.00 Build 0)  -->
<svg version="1.1" id="Laag_1" xmlns="http://www.w3.org/2000/svg" xmlns:xlink="http://www.w3.org/1999/xlink" x="0px" y="0px"
	 viewBox="0 0 480 480" style="enable-background:new 0 0 480 480;" xml:space="preserve">
<style type="text/css">
	.st0{fill:#FFFFFF;stroke:#FFFFFF;stroke-miterlimit:10;}
</style>
<path id="ViewLayer_LineSet" xmlns:inkscape="http://www.inkscape.org/namespaces/inkscape" inkscape:groupmode="lineset" inkscape:label="ViewLayer_LineSet" class="st0" d="
	M186.7-413.6l7.1,7l2.3,2.2l0.3,0.3 M186.7-413.6l10,0h4.2 M193.1-403.2l0.5-0.1l4-0.5 M200.8-403.8l-3.3,0.1 M197-404.4l-1-0.1
	 M198.1-420.2l-5.1-0.9l-1.7-0.3l-3-0.5l-1.6-0.3l-1.3-0.2l-7.7-1.3l-0.5-0.1l-0.8-0.1l-0.2,0l-2.2-0.4 M296.5-424.4l-2.2,0.4
	l-9.9,1.7l-7,1.2l-5.1,0.9 M297.8-422.2l-2.1-1.9 M274.9-420.6l1.6-0.3l0.5-0.1l2.1-0.4l3-0.5l1.6-0.3l1.5-0.2l7.3-1.2l1-0.2l0.1,0
	l0.3-0.1 M294.2-424l-0.7,0.3 M294.9-406.5l-0.3,0l-3.3,0.4 M294.6-406.5l-1,0.4 M276.9-403.2l9.9-1.7l6.8-1.2l4-0.2 M276.9-403.2
	l-4-0.5l0.1-0.2l0.4-0.5 M283.8-413.6l0-8.4 M272.4-420.4l-0.1,0.2 M269.6-413.6l10,0h4.2 M269.6-413.6l-5.3,0 M283.8-413.6h4.1
	l10,0 M283.8-413.6l2.9-2.9l7.1-7.1 M293.7-423.6l-0.2-0.1 M276.5-420.9l7.1,7l0.2,0.2 M273.1-403.9l8.5-7.6l2.2-2.2 M283.9-404.5
	l-0.1-9.1l7,7.1l0.4,0.4 M176.2-424L176.2-424l0.7,0.3 M176.6-423.8l0.3,0.1l0.1,0l1,0.2l7.3,1.2l1.5,0.2l1.6,0.3l3,0.5l2.1,0.4
	l0.4,0.1l1.7,0.3h0 M174.8-424.1l-2.1,1.9 M176.9-406.1l-4-0.2 M193.5-403.2l-9.9-1.7l-6.8-1.2l-1.1-0.4 M179.2-406.1l-3.4-0.4
	 M186.7-413.6l7.1-7l0.2-0.2 M186.7-404.5v-9.1 M179.2-406.1l0.4-0.4l7-7.1 M172.6-413.6h4.1l10,0 M186.7-422.1l0,8.4l-7.1-7.1
	l-2.9-2.9 M177-423.7l-0.2,0.1"/>
<polygon class="st0" points="223.9,-437.7 217.5,-432.3 209.8,-425.9 205.9,-422.8 204,-423.2 194.2,-425.1 184.2,-426.1 
	174.3,-427.1 166.8,-429.8 166.7,-429.8 157.2,-433.1 147.8,-436.5 157.7,-436.6 167.7,-436.7 177.7,-436.8 186,-436.9 196,-437 
	196.8,-437 203.9,-437.2 213.9,-437.4 "/>
<path class="st0" d="M348.3-419.8l-2.2-8.2l-2.6-0.4l-4.3-0.5l-1.5-7l0.4-10l0.4-10l0.4-10l0.3-7l-1.5-9.9l-1.5-9.9l-0.7-5l-3.2-9.5
	l-3.2-9.5l-3.2-9.5l-3.2-9.5l-3.2-9.5l-0.5-1.4L309-548l-9.9-1.4l-9.9-1.5l-9.9-1.5l-5.7-0.8l-10-0.8l-10-0.8l-10-0.8l-8.5-0.7
	l-10,0.8l-10,0.8l-10,0.8l-8.5,0.7l-9.9,1.4l-19.8,2.9l-9.9,1.5l-5.7,0.8l-3.2,9.5l-3.2,9.5l-3.2,9.5l-3.2,9.5l-3.2,9.5l-0.5,1.4
	l-1.5,9.9l-1.5,9.9l-0.7,5l0.4,10l0.4,10l0.4,10l0.3,7l-1.5,7l-4.3,0.5l-2.6,0.4l-2.5,9.7l-2.2,8.2l0.2,10l0.2,10l0.2,10l0.1,5
	l3.7,19.6l1.9,9.8l0.6,3.1l4.1,1.4h0.6l3.6,29.8l0.7,5.6l2.2,9.8l2.1,9.8l2.1,9.8l2.1,9.8l1.6,7.3l3.3,9.4l3.3,9.4l1.3,3.7l4.1,9.1
	l0.6,1.2l-1.6-10.5l-1.5-9.9l-1.5-9.9l-1.5-9.9l-1.5-9.9l-1.5-9.9l-1.5-9.9l-1.5-9.9l9.3-3.6l7.5-2.9l0.1,0l2.8-1.1l8-6l8-6l8-6
	l3.4-2.5l4.3,0.1l10,0.1l0-0.5l-0.5-10l-0.5-10l-9.8-1.8l-5.2-0.9l-10-0.9l-5.6-0.5l6-3.6l8.5-5.2l1.4-9.9l1.4-9.9l0.1-0.4l0.1-1v0
	l1-7.2l2.7,0.1l10,0.5l7.4,0.3l-0.9,6.5l-0.1,1l-1.4,9.9l-0.4,2.6l-4.6,1.1l-3.9,9.2l-0.8,2l4.2,8.1l9.3-3.6l3.9-1.5h0.3l8.4,0.3
	l6.4,0.2l6.4-0.2l8.4-0.3h0.3l-2.3-8.2l-1.3-9.9l-0.8-6.1l-0.2-3.2l-0.1-1l-0.2-2.7l-0.6-10l-0.3-10l-0.3-10l-0.3-10l-0.2-6.8l0-0.2
	l0-0.2l12.5,0.3l10,0.2l7.1,0.2l0.8,0l10,0.1l8.3,0.1l10,0.1l10,0.1l9.9,0.1l-0.2,0.1l-9.4,3.3l-9.4,3.3l-7.4,2.6l8.9,4.6l1.9,1
	l8.2,4.3l0.1,0l4,2.1l8.9,3.5l1.8,0.7l-1.7,1.3l-7.8,6.3l-5,4l-0.2,0.2l-1.9,1.5l-1,0.9l-7.5,6.7l-7.5,6.7l-0.4,0.3l-2.7,2.4
	l-7.5,6.7l-7.5,6.7l0-0.4l-1.4-9.9l-1.4-9.9l-0.1-1v0l-1-7.2l0.1-2.9l-9.5-3.1l-6.3-2l-0.6,0.1l-6.2,1l2.4,7.9l0.9,6.5l0.1,1
	l0.4,2.6l1.4,9.9l4.6,1.1l0.8,2l3.9,9.2l-4.2,8.1l-10,0.3l-10,0.4l-8.4,0.3v19l7.3,0.1l10,0.2l10,0.2l10-0.1l4.3-0.1l0.2-3l0.8-10
	l0.8-10l5.6-0.5l9.9-0.9l9.6,1.7l1.4,2.1l5.5,8.3l4.7-2.1l4.9,1.5l9.5,3l-1.2,8.2l-3,19.8l-1.5,9.9l-1.6,10.5l-1.5,9.9l-1.5,9.9
	l-1.5,9.9l-1.5,9.9l-1.5,9.9l-1.5,9.9l-1.5,9.9l4.1-9.1l0.6-1.2l3.3-9.4l3.3-9.5l1.3-3.7l2.1-9.8l2.2-9.8l2.1-9.8l2.1-9.8l1.6-7.3
	l2.4-19.9l1.2-9.9l0.7-5.6h0.6l4.1-1.4l1.9-9.8l1.9-9.8l1.9-9.8l0.6-3.2l0.2-10l0.2-10l0.2-10l0.1-5L348.3-419.8z M147.4-488.1l1-10
	l1-10l0.1-0.8l-1-3.5l3.5-9.4l3.5-9.4l3.5-9.4l1-2.6l0.3-0.9l6-1.2l9.8-2l9.8-2l9.8-2l-1.5,9.9l-1.5,9.9l-0.8,5.5l1.6,5.9l0,9.8
	l0,10l0,10l-8.2,2.1l-9.7,2.4l-19.4,4.9l-9.7,2.4L147.4-488.1z M223.9-437.7l-1.9,9.8l-1.9,9.8l-1.9,9.8l-1.1,5.5l-1.1,3.5
	l-21.5,0.5l-10-0.6l-10-0.6l-9.1-0.6l-3.7-0.2l-6-8l-0.7-0.9l-0.1-0.2l-3.9-5.2l-8.9,3.5l-1.8,0.7l1.6-5.5l2.8-9.6l2.8-9.6l0.3-0.9
	l4-9.1l3-6.8l10,0.8l10,0.8l10,0.8l10,0.8l3.3,0.2l9.9,1.1l9.9,1.1l7.8,0.8l0.8,8.7L223.9-437.7z M235.2-554.2l10,0.8l10,0.8l10,0.8
	l9.8,0.8l0.8,5.5l1.5,9.9l1.5,9.9l-3.9-0.5l-9.9-1.4l-9.9-1.4l-9.9-1.4l-9.9-1.4V-554.2z M322.5-459.7l-6.8,7.3l-3.3,0.2l-10,0.8
	l-10,0.8l-10,0.8l-10,0.8l-7.8,0.8l-9.9,1.1l-9.9,1.1l-9.6,1v-81l2.3,0.3l9.9,1.5l9.9,1.5l9.9,1.5l9.9,1.5l0,10l0,10l0,9.8l9.7,2.4
	l9.7,2.4l9.7,2.4l9.7,2.4l8.2,2.1l1.3,9.9l0.6,4.9L322.5-459.7z"/>
<polygon class="st0" points="298.2,-209 292.2,-208.3 282.3,-207.2 272.4,-206 262.5,-204.9 252.5,-203.8 245.2,-202.9 
	235.2,-201.8 227.9,-202.6 217.9,-203.8 212,-204.4 202.1,-205.6 192.1,-206.7 182.2,-207.9 172.2,-209 174.1,-218.8 176,-228.7 
	177.8,-238.5 178.5,-241.7 180.3,-251.6 182.2,-261.4 183.5,-268.3 185.4,-278.1 187.3,-288 189.1,-297.8 189.6,-300.4 
	191.5,-300.3 201.4,-300 211.4,-299.7 215.2,-299.7 225.2,-299.8 235.2,-299.8 239,-299.8 249,-299.8 259,-299.7 260.8,-299.8 
	270.8,-300.1 280.8,-300.4 282.7,-290.6 284.6,-280.7 286.4,-270.9 286.9,-268.3 288.8,-258.5 290.7,-248.7 292,-241.7 
	293.8,-231.9 295.7,-222.1 297.6,-212.3 "/>
<polyline class="st0" points="273,-403.7 260.6,-404.9 260.6,-405.7 260.6,-405.8 260.7,-406.5 260.7,-406.7 260.8,-408.5 
	261.3,-409.4 266.3,-418 267.4,-418.9 267.9,-419.4 268.1,-419.5 272.3,-420.2 269.6,-413.6 273.4,-404.4 "/>
<polygon class="st0" points="309.2,-413.5 309.1,-413.4 308.6,-413.2 308.2,-413 308.2,-413 307.4,-412.5 304.7,-411 297.6,-406.3 
	297,-406.5 294.9,-406.5 297.8,-413.6 297.5,-414.4 293.7,-423.6 293.9,-423.8 295.7,-424.1 296.5,-424.4 301.6,-420 "/>
<polygon class="st0" points="296.1,-316.8 287.3,-317.2 277.3,-317.7 267.3,-317.7 260.2,-317.7 250.2,-317.8 240.2,-317.9 
	235.2,-318 215.2,-317.7 210.2,-317.7 203.1,-317.7 193.1,-317.7 184.4,-317.3 174.4,-316.8 176.5,-318 185.3,-322.9 194,-327.8 
	199,-327.8 209,-327.9 215.2,-328 225.2,-328.2 235.2,-328.3 241.5,-328.2 251.5,-328.1 261.5,-327.9 266.5,-327.9 276.5,-327.8 
	278.6,-326.6 287.3,-321.7 "/>
<path class="st0" d="M260.1-403.8"/>
<polygon class="st0" points="200.8,-403.8 202.3,-404.4 197.2,-404.4 197,-404.4 200.8,-413.6 198.1,-420.2 202.3,-419.5 
	202.5,-419.4 203.1,-418.9 204.2,-418 204.7,-417.1 209.7,-408.5 209.8,-406.7 209.8,-406.5 209.8,-405.8 209.8,-405.7 
	209.9,-404.9 "/>
<polygon class="st0" points="172.6,-413.6 175.6,-406.5 173.4,-406.5 172.8,-406.3 165.8,-411 163,-412.5 162.2,-413 162.2,-413 
	161.8,-413.2 161.4,-413.4 161.3,-413.5 166.4,-417.9 174,-424.4 174.8,-424.1 176.6,-423.8 176.7,-423.6 172.9,-414.4 "/>
<polygon class="st0" points="244,-437.7 244,-437.3 244,-437.5 "/>
</svg>
