<?xml version="1.0" encoding="UTF-8"?><svg id="Laag_1" xmlns="http://www.w3.org/2000/svg" viewBox="0 0 231 355.5"><defs><style>.cls-1{fill:#fff;stroke:#fff;stroke-miterlimit:10;}</style></defs><path class="cls-1" d="m104.9,119.1l-6.4,5.4-7.7,6.4-3.9,3.1-1.9-.4-9.8-1.9-10-1-9.9-1-7.5-2.7h-.1l-9.5-3.3-9.4-3.4,9.9-.1,10-.1,10-.1,8.3-.1,10-.1h.8l7.1-.2,10-.2,10-.3Zm124.4,17.9l-2.2-8.2-2.6-.4-4.3-.5-1.5-7,.4-10,.4-10,.4-10,.3-7-1.5-9.9-1.5-9.9-.7-5-3.2-9.5-3.2-9.5-3.2-9.5-3.2-9.5-3.2-9.5-.5-1.4-10-1.4-9.9-1.4-9.9-1.5-9.9-1.5-5.7-.8-10-.8-10-.8-10-.8-8.5-.7-10,.8-10,.8-10,.8-8.5.7-9.9,1.4-19.8,2.9-9.9,1.5-5.7.8-3.2,9.5-3.2,9.5-3.2,9.5-3.2,9.5-3.2,9.5-.5,1.4-1.5,9.9-1.5,9.9-.7,5,.4,10,.4,10,.4,10,.3,7-1.5,7-4.3.5-2.6.4-2.5,9.7-2.2,8.2.2,10,.2,10,.2,10,.1,5,3.7,19.6,1.9,9.8.6,3.1,4.1,1.4h.6l3.6,29.8.7,5.6,2.2,9.8,2.1,9.8,2.1,9.8,2.1,9.8,1.6,7.3,3.3,9.4,3.3,9.4,1.3,3.7,4.1,9.1.6,1.2-1.6-10.5-1.5-9.9-1.5-9.9-1.5-9.9-1.5-9.9-1.5-9.9-1.5-9.9-1.5-9.9,9.3-3.6,7.5-2.9h.1l2.8-1.1,8-6,8-6,8-6,3.4-2.5,4.3.1,10,.1v-.5l-.5-10-.5-10-9.8-1.8-5.2-.9-10-.9-5.6-.5,6-3.6,8.5-5.2,1.4-9.9,1.4-9.9.1-.4.1-1h0l1-7.2,2.7.1,10,.5,7.4.3-.9,6.5-.1,1-1.4,9.9-.4,2.6-4.6,1.1-3.9,9.2-.8,2,4.2,8.1,9.3-3.6,3.9-1.5h.3l8.4.3,6.4.2,6.4-.2,8.4-.3h.3l-2.3-8.2-1.3-9.9-.8-6.1-.2-3.2-.1-1-.2-2.7-.6-10-.3-10-.3-10-.3-10-.2-6.8v-.4l12.5.3,10,.2,7.1.2h.8l10,.1,8.3.1,10,.1,10,.1,9.9.1-.2.1-9.4,3.3-9.4,3.3-7.4,2.6,8.9,4.6,1.9,1,8.2,4.3h.1l4,2.1,8.9,3.5,1.8.7-1.7,1.3-7.8,6.3-5,4-.2.2-1.9,1.5-1,.9-7.5,6.7-7.5,6.7-.4.3-2.7,2.4-7.5,6.7-7.5,6.7v-.4l-1.4-9.9-1.4-9.9-.1-1h0l-1-7.2.1-2.9-9.5-3.1-6.3-2-.6.1-6.2,1,2.4,7.9.9,6.5.1,1,.4,2.6,1.4,9.9,4.6,1.1.8,2,3.9,9.2-4.2,8.1-10,.3-10,.4-8.4.3v19l7.3.1,10,.2,10,.2,10-.1,4.3-.1.2-3,.8-10,.8-10,5.6-.5,9.9-.9,9.6,1.7,1.4,2.1,5.5,8.3,4.7-2.1,4.9,1.5,9.5,3-1.2,8.2-3,19.8-1.5,9.9-1.6,10.5-1.5,9.9-1.5,9.9-1.5,9.9-1.5,9.9-1.5,9.9-1.5,9.9-1.5,9.9,4.1-9.1.6-1.2,3.3-9.4,3.3-9.5,1.3-3.7,2.1-9.8,2.2-9.8,2.1-9.8,2.1-9.8,1.6-7.3,2.4-19.9,1.2-9.9.7-5.6h.6l4.1-1.4,1.9-9.8,1.9-9.8,1.9-9.8.6-3.2.2-10,.2-10,.2-10,.1-5-1.2-9.4ZM28.4,68.7l1-10,1-10,.1-.8.66-3.63,1.84-9.27,3.5-9.4,3.5-9.4,1-2.6.3-.9,6-1.2,9.8-2,9.8-2,9.8-2-1.5,9.9-1.5,9.9.24,5.2.56,6.2v29.8l-8.2,2.1-9.7,2.4-19.4,4.9-9.7,2.4.9-9.6Zm76.5,50.4l-1.9,9.8-1.9,9.8-1.9,9.8-1.1,5.5-1.1,3.5-21.5.5-10-.6-10-.6-9.1-.6-3.7-.2-6-8-.7-.9-.1-.2-4.74-1.15-8.06-.55-1.8.7,1.6-5.5,2.8-9.6,2.8-9.6.3-.9,4-9.1,3-6.8,10,.8,10,.8,10,.8,10,.8,3.3.2,9.9,1.1,9.9,1.1,7.8.8.8,8.7-2.6-.4ZM116.2,2.6l10,.8,10,.8,10,.8,9.8.8.8,5.5,1.5,9.9,1.5,9.9-3.9-.5-9.9-1.4-9.9-1.4-9.9-1.4-9.9-1.4V2.6h-.1Zm87.3,94.5l-6.8,7.3-3.3.2-10,.8-10,.8-10,.8-10,.8-7.8.8-9.9,1.1-9.9,1.1-9.6,1V30.8l2.3.3,9.9,1.5,9.9,1.5,9.9,1.5,9.9,1.5v29.8l9.7,2.4,9.7,2.4,9.7,2.4,9.7,2.4,8.2,2.1,1.3,9.9.6,4.9-3.5,3.7Zm-24.3,250.7l-6,.7-9.9,1.1-9.9,1.2-9.9,1.1-10,1.1-7.3.9-10,1.1-7.3-.8-10-1.2-5.9-.6-9.9-1.2-10-1.1-9.9-1.2-10-1.1,1.9-9.8,1.9-9.9,1.8-9.8.7-3.2,1.8-9.9,1.9-9.8,1.3-6.9,1.9-9.8,1.9-9.9,1.8-9.8.5-2.6,1.9.1,9.9.3,10,.3h3.8l10-.1h23.8l10,.1,1.8-.1,10-.3,10-.3,1.9,9.8,1.9,9.9,1.8,9.8.5,2.6,1.9,9.8,1.9,9.8,1.3,7,1.8,9.8,1.9,9.8,1.9,9.8.6,3.3Zm-25.2-194.7l-12.4-1.2v-.9l.1-.7v-.2l.1-1.8.5-.9,5-8.6,1.1-.9.5-.5.2-.1,4.2-.7-2.7,6.6,3.8,9.2m35.8-9.1l-.1.1-.5.2-.4.2h0l-.8.5-2.7,1.5-6.8,4.12-.9.38h-2.1l2.9-7.1-.3-.8-3.8-9.2.2-.2,1.8-.3.8-.3,5.1,4.4,7.6,6.5Zm-13.1,96.7l-8.8-.4-10-.5h-17.1l-10-.1-10-.1-5-.1-20,.3h-22.1l-8.7.4-10,.5,2.1-1.2,8.8-4.9,8.7-4.9h5l10-.1,6.2-.1,10-.2,10-.1,6.3.1,10,.1,10,.2h5l10,.1,2.1,1.2,8.7,4.9,8.8,4.9Zm-36-87-56.23-.57l-1.57-.03h-5.3l3.8-9.2-2.7-6.6,4.2.7.2.1.6.5,1.1.9.5.9,5,8.6.1,1.8v1l.1.8-6.03.53Zm-31.27-9.23l3,7.1-1.73,1.02-1.07-.82-7-4.7-2.8-1.5-.8-.5h0l-.4-.2-.4-.2-.1-.1,5.1-4.4,7.6-6.5.8.3,1.8.3.1.2-3.8,9.2-.3.8Zm71.4-24.1v.4-.4Zm-57.15,15.49c-5,0-9.05,4.05-9.05,9.05s4.05,9.05,9.05,9.05,9.05-4.05,9.05-9.05-4.05-9.05-9.05-9.05Zm96.7,0c-5,0-9.05,4.05-9.05,9.05s4.05,9.05,9.05,9.05,9.05-4.05,9.05-9.05-4.05-9.05-9.05-9.05Z"/></svg>